<svg xmlns="http://www.w3.org/2000/svg" width="115" height="116" viewBox="0 0 115 116">
  <g id="current" transform="translate(0.144 0.381)">
    <rect id="Rectangle_765" data-name="Rectangle 765" width="115" height="116" rx="16" transform="translate(-0.144 -0.381)" fill="#622864"/>
    <g id="Group_7827" data-name="Group 7827" transform="translate(-575.512 -828.831)">
      <path id="Path_38217" data-name="Path 38217" d="M273.409,150.2l-9.644,14.373a2,2,0,0,0,1.742,3.111l3.671-.187a.641.641,0,0,1,.684.746l-.809,7.964a1.976,1.976,0,0,0,3.609,1.307l9.644-14.373a2,2,0,0,0-1.742-3.111l-3.671.187a.641.641,0,0,1-.684-.747l.809-7.964A1.976,1.976,0,0,0,273.409,150.2Z" transform="translate(360.143 722.709)" fill="#fff"/>
      <path id="Path_38218" data-name="Path 38218" d="M211.838,79.084a1.368,1.368,0,0,0-1.244-.747h-3.3a24.912,24.912,0,0,0-45.42-12.008,1.924,1.924,0,0,0,3.173,2.177,21.159,21.159,0,0,1,38.514,9.831h-3.111a1.415,1.415,0,0,0-1.244.747,1.584,1.584,0,0,0,.062,1.493l5.1,7.342a1.434,1.434,0,0,0,2.365,0l5.1-7.342a1.588,1.588,0,0,0,0-1.493Z" transform="translate(450.709 806.14)" fill="#fff"/>
      <path id="Path_38219" data-name="Path 38219" d="M131.094,227.174a21.159,21.159,0,0,1-38.514-9.831h3.111a1.415,1.415,0,0,0,1.244-.746,1.584,1.584,0,0,0-.062-1.493l-5.1-7.342a1.528,1.528,0,0,0-2.364,0l-5.1,7.4a1.429,1.429,0,0,0-.062,1.493,1.368,1.368,0,0,0,1.244.747h3.3a24.915,24.915,0,0,0,45.42,11.946,1.914,1.914,0,0,0-.5-2.675,1.886,1.886,0,0,0-2.613.5Z" transform="translate(519.568 671.241)" fill="#fff"/>
    </g>
  </g>
</svg>
