<svg xmlns="http://www.w3.org/2000/svg" width="84" height="84" viewBox="0 0 84 84">
  <g id="edit-icon" transform="translate(-626 -1258)">
    <g id="Group_7845" data-name="Group 7845" transform="translate(-16621.508 -836.843)">
      <path id="Path_38227" data-name="Path 38227" d="M77.065,49.016a2.442,2.442,0,0,0,.987-.228l9.578-4.257A9.871,9.871,0,0,0,90.2,42.768l26.152-26.151a2.673,2.673,0,0,0,0-3.777l-4.788-4.789a2.675,2.675,0,0,0-3.776,0L80.964,34.872a9.252,9.252,0,0,0-1.744,2.615l-3.656,8.88a1.969,1.969,0,0,0,.086,1.918,1.667,1.667,0,0,0,1.415.731ZM88.307,40.88h0l-4.788-4.787,22.146-22.146,4.788,4.788ZM109.67,9.941l4.788,4.788-2.118,2.118-4.788-4.788ZM81.689,38.5c.039-.095.092-.2.151-.313l4.148,4.148-7.194,3.2Z" transform="translate(17193.264 2108.455)" fill="#666"/>
    </g>
    <g id="Ellipse_238" data-name="Ellipse 238" transform="translate(626 1258)" fill="none" stroke="#e7e7e7" stroke-width="1">
      <circle cx="42" cy="42" r="42" stroke="none"/>
      <circle cx="42" cy="42" r="41.5" fill="none"/>
    </g>
  </g>
</svg>
